<?xml version="1.0" standalone="no"?><!DOCTYPE svg PUBLIC "-//W3C//DTD SVG 1.1//EN" "http://www.w3.org/Graphics/SVG/1.1/DTD/svg11.dtd"><svg id="logo.svg" viewBox="0 0 585 50" style="background-color:#ffffff" version="1.1"	xmlns="http://www.w3.org/2000/svg" xmlns:xlink="http://www.w3.org/1999/xlink" xml:space="preserve"	x="0px" y="0px" width="585px" height="50px">	<path id="path" d="M 36.4844 7 L 28.9531 7 L 28.9531 21 L 15.0625 21 L 15.0625 7 L 7.5 7 L 7.5 43 L 15.0625 43 L 15.0625 27 L 28.9531 27 L 28.9531 43 L 36.4844 43 L 36.4844 7 L 36.4844 7 Z" fill="#000000"/>	<path id="path2" d="M 59.2813 13 L 68.9688 13 L 68.9688 7 L 42.0156 7 L 42.0156 13 L 51.7031 13 L 51.7031 43 L 59.2813 43 L 59.2813 13 L 59.2813 13 Z" fill="#000000"/>	<path id="path3" d="M 96.4531 43 L 105.6094 14.7969 L 105.8281 14.7969 C 105.625 19.3281 105.5156 22.125 105.4844 23.1719 C 105.4531 24.2344 105.4531 25.1563 105.4531 25.9531 L 105.4531 43 L 112.5156 43 L 112.5156 7 L 102.2188 7 L 93.3125 34.5313 L 93.1719 34.5313 L 84.7656 7 L 74.5 7 L 74.5 43 L 81.25 43 L 81.25 26.25 C 81.25 24.3438 81.0938 20.5 80.7969 14.75 L 81.0156 14.75 L 89.5313 43 L 96.4531 43 L 96.4531 43 Z" fill="#000000"/>	<path id="path4" d="M 143.2813 43 L 143.2813 37 L 129.0625 37 L 129.0625 7 L 121.5 7 L 121.5 43 L 143.2813 43 L 143.2813 43 Z" fill="#000000"/>	<path id="path5" d="M 156.375 20.3281 L 155.5 20.5 L 156.1719 13 L 169.2344 13 L 169.2344 7 L 149.5625 7 L 148.2031 25.1875 L 151.2813 26.7969 C 151.9375 26.6094 152.8125 26.4219 153.875 26.25 C 154.9375 26.0938 155.9219 26 156.7969 26 C 161.6719 26 164.125 27.7969 164.125 31.3594 C 164.125 35.125 161.7656 37 157.0469 37 C 155.4844 37 153.8281 36.7969 152.0781 36.3594 C 150.3281 35.9219 148.7969 35.375 147.4844 34.6875 L 147.4844 41.1094 C 149.9531 42.375 153.2188 43 157.25 43 C 161.9063 43 165.4688 41.9531 167.9688 39.8281 C 170.4688 37.7031 171.7188 34.6719 171.7188 30.7344 C 171.7188 27.4063 170.6719 24.7813 168.5781 22.875 C 166.4844 20.9688 163.6719 20 160.1406 20 C 158.6406 20 157.3906 20.1094 156.375 20.3281 L 156.375 20.3281 Z" fill="#000000"/>	<path id="path6" d="M 212.0015 0.0474 L 206.1512 18.0485 L 187.7 18.0485 L 202.551 29.1992 L 196.8506 46.9002 L 212.0015 35.9496 L 227.1024 46.9002 L 221.4521 29.1992 L 236.253 18.0485 L 217.8019 18.0485 L 212.0015 0.0474 L 212.0015 0.0474 Z" fill="#000000"/>	<path id="path7" d="M 254.5 43 L 268.0469 43 C 272.1406 43 275.3906 42.0781 277.7813 40.2031 C 280.1563 38.3438 281.3594 35.75 281.3594 32.4063 C 281.3594 30.0625 280.8594 28.1719 279.8594 26.7656 C 278.8594 25.3594 277.2188 24.3906 274.9531 23.8594 L 274.9531 23.6094 C 276.6094 23.3438 277.9375 22.5313 278.9375 21.1719 C 279.9375 19.8281 280.4375 18.0938 280.4375 15.9688 C 280.4375 12.8438 279.2656 10.5781 276.9531 9.1406 C 274.625 7.7188 270.8906 7 265.7656 7 L 254.5 7 L 254.5 43 L 254.5 43 ZM 262.0625 13 L 266.2031 13 C 268.4375 13 270.0781 13.3125 271.125 13.9063 C 272.1563 14.5 272.6875 15.4844 272.6875 16.8594 C 272.6875 18.3438 272.2031 19.4063 271.25 20.0469 C 270.2969 20.6875 268.75 21 266.625 21 L 262.0625 21 L 262.0625 13 L 262.0625 13 ZM 266.9219 27 C 271.2969 27 273.5 28.5938 273.5 31.7813 C 273.5 33.5469 272.9844 34.8594 271.9531 35.7188 C 270.9219 36.5781 269.3281 37 267.1719 37 L 262.0625 37 L 262.0625 27 L 266.9219 27 L 266.9219 27 Z" fill="#000000"/>	<path id="path8" d="M 316.7031 11.6406 C 313.7813 8.5469 309.5625 7 304.0469 7 C 298.5156 7 294.2813 8.5469 291.3281 11.6094 C 288.375 14.6719 286.9063 19.125 286.9063 24.9375 C 286.9063 30.7656 288.375 35.2344 291.3281 38.3438 C 294.2656 41.4531 298.5 43 304 43 C 309.5 43 313.7188 41.4531 316.6719 38.3438 C 319.6094 35.2344 321.0938 30.7813 321.0938 24.9844 C 321.0938 19.1875 319.625 14.7344 316.7031 11.6406 L 316.7031 11.6406 ZM 297.1563 16.0313 C 298.7031 14.0156 301 13 304.0469 13 C 310.1094 13 313.1563 17.0156 313.1563 25.0156 C 313.1563 33.0156 310.0938 37 304 37 C 300.9531 37 298.6719 36 297.1406 33.9844 C 295.6094 31.9844 294.8438 28.9844 294.8438 25.0156 C 294.8438 21.0469 295.6094 18.0625 297.1563 16.0313 L 297.1563 16.0313 Z" fill="#000000"/>	<path id="path9" d="M 336.1719 43 L 336.1719 7 L 328.6094 7 L 328.6094 43 L 336.1719 43 L 336.1719 43 Z" fill="#000000"/>	<path id="path10" d="M 367.2813 43 L 367.2813 37 L 353.0625 37 L 353.0625 7 L 345.5 7 L 345.5 43 L 367.2813 43 L 367.2813 43 Z" fill="#000000"/>	<path id="path11" d="M 394.0469 37 L 381.0625 37 L 381.0625 27 L 393.1406 27 L 393.1406 21 L 381.0625 21 L 381.0625 13 L 394.0469 13 L 394.0469 7 L 373.5 7 L 373.5 43 L 394.0469 43 L 394.0469 37 L 394.0469 37 Z" fill="#000000"/>	<path id="path12" d="M 409.0625 13 L 411.3594 13 C 413.7969 13 415.5938 13.375 416.75 14.125 C 417.9063 14.875 418.5 16.1094 418.5 17.8594 C 418.5 19.6406 417.9219 20.9375 416.7813 21.7656 C 415.6406 22.5938 413.875 23 411.5 23 L 409.0625 23 L 409.0625 13 L 409.0625 13 ZM 413.0938 29 L 421.5938 43 L 430 43 C 428.375 40.625 424.875 35.3281 419.5156 27.1406 C 421.625 26.2188 423.25 24.9375 424.4063 23.2969 C 425.5625 21.6719 426.1406 19.7969 426.1406 17.6875 C 426.1406 14.0938 424.9688 11.4219 422.6406 9.6563 C 420.3125 7.8906 416.7344 7 411.8906 7 L 401.5 7 L 401.5 43 L 409.0625 43 L 409.0625 29 L 413.0938 29 L 413.0938 29 Z" fill="#000000"/>	<path id="path13" d="M 442.0625 13 L 445.3594 13 C 447.3438 13 448.7969 13.4531 449.7344 14.3281 C 450.6563 15.2031 451.125 16.5625 451.125 18.4063 C 451.125 20.2344 450.5625 21.625 449.4531 22.5781 C 448.3438 23.5313 446.6719 24 444.4531 24 L 442.0625 24 L 442.0625 13 L 442.0625 13 ZM 455.4375 9.7969 C 453.2188 7.9375 449.9688 7 445.7188 7 L 434.5 7 L 434.5 43 L 442.0625 43 L 442.0625 30 L 445.2344 30 C 449.5469 30 452.8906 28.9844 455.2344 26.9531 C 457.5781 24.9219 458.7656 21.9844 458.7656 18.1406 C 458.7656 14.4531 457.6563 11.6719 455.4375 9.7969 L 455.4375 9.7969 Z" fill="#000000"/>	<path id="path14" d="M 487.2813 43 L 487.2813 37 L 473.0625 37 L 473.0625 7 L 465.5 7 L 465.5 43 L 487.2813 43 L 487.2813 43 Z" fill="#000000"/>	<path id="path15" d="M 524 43 L 511.0938 7 L 501.8438 7 L 489 43 L 497.1563 43 L 499.8125 34 L 513.1875 34 L 515.8438 43 L 524 43 L 524 43 ZM 501.7656 28 C 504.375 19.7813 505.9531 14.6406 506.5156 12.5469 C 506.6406 13.1406 506.8594 13.9375 507.1719 14.9375 C 507.4844 15.9531 508.8594 20.3125 511.3281 28 L 501.7656 28 L 501.7656 28 Z" fill="#000000"/>	<path id="path16" d="M 541.2813 13 L 550.9688 13 L 550.9688 7 L 524.0156 7 L 524.0156 13 L 533.7031 13 L 533.7031 43 L 541.2813 43 L 541.2813 13 L 541.2813 13 Z" fill="#000000"/>	<path id="path17" d="M 577.0469 37 L 564.0625 37 L 564.0625 27 L 576.1406 27 L 576.1406 21 L 564.0625 21 L 564.0625 13 L 577.0469 13 L 577.0469 7 L 556.5 7 L 556.5 43 L 577.0469 43 L 577.0469 37 L 577.0469 37 Z" fill="#000000"/></svg>